<svg version="1.1" id="Layer_1" xmlns="http://www.w3.org/2000/svg" xmlns:xlink="http://www.w3.org/1999/xlink" x="0px" y="0px"
	 width="100%" viewBox="0 0 700 187" enable-background="new 0 0 700 187" xml:space="preserve">
<path fill="#1C1B1B" opacity="1.000000" stroke="none" 
	d="
M501.000000,188.000000 
	C334.046906,188.000000 167.593781,188.000000 1.070338,188.000000 
	C1.070338,125.731178 1.070338,63.462261 1.070338,1.096670 
	C234.333313,1.096670 467.666656,1.096670 700.971680,1.096670 
	C700.971680,63.406258 700.971680,125.703140 700.971680,188.000000 
	C634.462219,188.000000 567.981079,188.000000 501.000000,188.000000 
M383.149292,131.727921 
	C391.429199,117.480309 399.709106,103.232697 407.989044,88.985085 
	C408.341797,89.141136 408.694550,89.297180 409.047302,89.453232 
	C410.946350,105.597305 412.845398,121.741386 414.735901,137.812988 
	C418.779724,137.812988 422.299469,137.812988 426.169373,137.812988 
	C423.507019,115.106590 420.898529,92.859360 418.314331,70.819389 
	C411.076721,69.237091 406.277344,70.316475 402.910645,77.427277 
	C398.440826,86.867897 392.567596,95.643661 387.304016,104.708954 
	C380.971069,115.616020 374.645111,126.527153 368.265045,137.524628 
	C377.878357,139.540863 378.835205,139.189636 383.149292,131.727921 
M210.598846,19.052595 
	C173.618454,56.035915 136.638016,93.019188 99.657974,130.002853 
	C98.715828,130.945099 97.305786,131.743439 96.951340,132.871933 
	C96.444908,134.484268 96.712639,136.339798 96.649750,138.091461 
	C98.280846,137.963043 99.997147,138.099518 101.512733,137.612015 
	C102.503807,137.293182 103.209373,136.075424 104.033669,135.251144 
	C141.251556,98.034195 178.468445,60.816235 215.685257,23.598185 
	C216.391891,22.891523 217.474518,22.293344 217.721542,21.450958 
	C218.215500,19.766468 218.251083,17.947563 218.475922,16.184160 
	C216.726791,16.264614 214.930054,16.134804 213.248825,16.515306 
	C212.423279,16.702147 211.811874,17.835207 210.598846,19.052595 
M278.559509,93.892685 
	C284.623688,94.895538 284.749603,90.863358 284.895203,86.478226 
	C282.421936,86.272751 280.140930,86.083244 277.377930,85.853699 
	C278.363983,81.140800 279.300415,76.665169 280.320984,71.787247 
	C276.395233,71.787247 272.993378,71.787247 269.296539,71.787247 
	C268.408203,75.602974 267.722839,79.371750 266.580963,82.996719 
	C266.189941,84.238068 264.575684,86.084427 263.656036,86.008575 
	C257.578674,85.507278 258.249054,89.687401 257.797699,93.574829 
	C259.975464,93.832123 261.869446,94.055885 263.985291,94.305870 
	C261.710358,104.366936 259.283997,114.059326 257.366272,123.851311 
	C255.146042,135.187881 258.596802,139.069565 269.961426,138.775131 
	C276.156403,138.614624 276.397003,138.363754 276.597260,131.855804 
	C267.922882,129.816208 267.261108,128.743790 269.310608,119.852699 
	C271.031403,112.387642 272.674500,104.901085 274.623077,97.495361 
	C274.984253,96.122742 276.635437,95.089546 278.559509,93.892685 
M71.822380,126.322586 
	C82.545586,115.597839 93.269035,104.873329 103.991516,94.147858 
	C104.816284,93.322861 106.076828,92.616837 106.356133,91.634186 
	C106.826523,89.979240 106.672104,88.146698 106.780487,86.388855 
	C104.906670,86.497253 103.007126,86.461639 101.172501,86.789429 
	C100.498260,86.909874 99.976143,87.888069 99.386948,88.477325 
	C75.936516,111.929649 52.485291,135.381180 29.040131,158.838760 
	C28.099768,159.779602 26.778982,160.643295 26.426952,161.786652 
	C26.050264,163.010071 26.115307,165.106201 26.887686,165.763199 
	C27.888634,166.614624 29.873802,166.846283 31.257893,166.540909 
	C32.376480,166.294098 33.259743,164.884476 34.200840,163.944092 
	C46.579506,151.575089 58.949902,139.197800 71.822380,126.322586 
M456.163666,74.570480 
	C451.340515,95.572411 446.517395,116.574341 441.604706,137.966202 
	C445.643372,137.966202 449.050018,137.966202 452.863525,137.966202 
	C458.022675,115.548958 463.170166,93.182381 468.452789,70.228668 
	C465.348206,70.228668 463.193939,70.400444 461.078766,70.186371 
	C458.262054,69.901306 456.600037,70.817001 456.163666,74.570480 
M586.397400,107.239883 
	C589.560425,103.494370 592.043274,98.475334 596.060730,96.329628 
	C600.948669,93.718979 601.173401,90.366562 601.538086,86.093102 
	C585.331970,87.273460 571.179260,106.466316 573.880920,123.077980 
	C575.387146,132.339233 581.833374,138.693542 591.217651,138.445541 
	C596.459351,138.307022 601.961487,136.578369 606.764526,134.325775 
	C612.189575,131.781479 612.012512,130.386734 608.375549,125.880966 
	C604.591614,127.084114 601.054138,128.688354 597.353882,129.288956 
	C588.767151,130.682632 583.435181,125.777565 584.029114,117.136765 
	C584.241638,114.044426 585.388733,111.016319 586.397400,107.239883 
M554.911072,87.448006 
	C545.462341,83.234535 536.225281,86.830559 535.488770,95.405342 
	C536.833923,95.149559 538.097656,94.909004 539.361572,94.668968 
	C547.396301,93.143044 550.689392,96.279076 549.436218,104.451019 
	C548.908264,107.893967 548.076233,111.292831 547.318054,114.697403 
	C545.602600,122.400200 543.847168,130.094101 542.010254,138.224091 
	C545.369873,138.224091 548.046692,138.453964 550.650208,138.117279 
	C551.780396,137.971130 553.469604,136.826187 553.699097,135.851074 
	C556.324768,124.695389 558.796082,113.501289 561.141113,102.282440 
	C562.379395,96.358139 560.513672,91.459389 554.911072,87.448006 
M313.219513,87.927658 
	C309.308563,84.350159 303.591248,85.518982 302.461731,90.170151 
	C301.246246,95.175453 300.124420,100.203522 298.963776,105.222137 
	C296.466187,116.021782 293.969879,126.821732 291.388550,137.987152 
	C295.422150,137.987152 298.838470,137.987152 302.481750,137.987152 
	C303.560181,133.477448 304.682648,129.149612 305.622650,124.782509 
	C308.206268,112.779213 310.713409,100.759460 313.219513,87.927658 
M649.824341,108.493866 
	C651.325256,101.292442 652.826172,94.091026 654.335815,86.847839 
	C643.935303,85.276482 643.939819,85.277512 641.944397,94.015274 
	C641.426208,96.284264 640.857239,98.541611 640.333984,100.809502 
	C637.504456,113.072784 634.681885,125.337700 631.771545,137.972595 
	C635.743896,137.972595 639.146912,137.972595 642.887207,137.972595 
	C645.150818,128.352615 647.391663,118.829498 649.824341,108.493866 
M517.342651,106.685005 
	C514.994080,117.001747 512.645569,127.318489 510.212982,138.004486 
	C512.237366,138.099182 513.716187,138.038361 515.151489,138.259583 
	C519.661743,138.954834 521.818481,137.506241 522.777283,132.596924 
	C525.292114,119.720512 528.571106,106.994759 531.411377,94.179214 
	C531.957642,91.714241 531.892456,89.113739 532.125427,86.387848 
	C528.316467,86.387848 525.368408,86.387848 522.090027,86.387848 
	C520.568481,92.966400 519.074402,99.426407 517.342651,106.685005 
M618.824951,92.756660 
	C615.604370,88.621826 611.512390,86.207710 605.857849,86.058762 
	C605.182800,88.784508 604.555237,91.318436 603.951050,93.757881 
	C611.520386,98.030251 613.146484,101.164574 611.219177,107.926498 
	C606.366943,107.926498 601.399658,107.924423 596.432373,107.927002 
	C589.788513,107.930450 589.293945,108.493927 589.604492,116.035187 
	C596.556152,116.035187 603.525269,116.035164 610.494385,116.035179 
	C621.496094,116.035194 623.442627,114.009621 622.206116,102.748924 
	C621.855164,99.552711 620.254883,96.493675 618.824951,92.756660 
M346.491089,153.139587 
	C349.489899,153.139572 352.517883,152.874054 355.480835,153.199982 
	C360.275513,153.727402 361.654633,151.529282 361.087646,147.172424 
	C348.716400,147.172424 336.487335,147.172424 324.165833,147.172424 
	C323.781036,149.228561 323.460480,150.941528 323.049103,153.139587 
	C330.881744,153.139587 338.187775,153.139587 346.491089,153.139587 
M481.498413,153.138092 
	C487.259888,153.138092 493.021362,153.138092 498.814270,153.138092 
	C499.283875,150.788284 499.626129,149.075821 500.079010,146.809723 
	C488.930725,146.809723 478.318634,147.001434 467.719025,146.720795 
	C463.107452,146.598694 461.331116,148.176804 462.056915,152.639786 
	C462.446167,152.801498 462.747314,153.034042 463.050415,153.036652 
	C468.866638,153.086609 474.683105,153.109558 481.498413,153.138092 
M670.206543,85.937126 
	C658.661560,86.540665 656.749207,88.167900 656.810852,97.134048 
	C661.244507,97.134048 665.664673,97.134048 670.385742,97.134048 
	C671.186096,93.841354 672.009521,90.823891 672.573730,87.758720 
	C672.664856,87.263725 671.603027,86.556511 670.206543,85.937126 
M323.646515,96.802063 
	C325.731171,96.802063 327.815826,96.802063 330.180664,96.802063 
	C330.963928,93.221237 331.714203,89.791290 332.490173,86.243851 
	C317.131897,85.964195 316.505554,88.413773 316.445679,97.389938 
	C318.561676,97.197006 320.663483,97.005379 323.646515,96.802063 
M407.131531,124.105865 
	C407.739838,121.852036 408.348145,119.598198 408.990326,117.218895 
	C395.764435,115.750443 395.317047,115.941429 392.274261,124.133232 
	C397.044922,124.133232 401.624115,124.133232 407.131531,124.105865 
z"/>
<path fill="#E9C324" opacity="1.000000" stroke="none" 
	d="
M382.975952,132.051697 
	C378.835205,139.189636 377.878357,139.540863 368.265045,137.524628 
	C374.645111,126.527153 380.971069,115.616020 387.304016,104.708954 
	C392.567596,95.643661 398.440826,86.867897 402.910645,77.427277 
	C406.277344,70.316475 411.076721,69.237091 418.314331,70.819389 
	C420.898529,92.859360 423.507019,115.106590 426.169373,137.812988 
	C422.299469,137.812988 418.779724,137.812988 414.735901,137.812988 
	C412.845398,121.741386 410.946350,105.597305 409.047302,89.453232 
	C408.694550,89.297180 408.341797,89.141136 407.989044,88.985085 
	C399.709106,103.232697 391.429199,117.480309 382.975952,132.051697 
z"/>
<path fill="#E1BC23" opacity="1.000000" stroke="none" 
	d="
M210.851196,18.796326 
	C211.811874,17.835207 212.423279,16.702147 213.248825,16.515306 
	C214.930054,16.134804 216.726791,16.264614 218.475922,16.184162 
	C218.251083,17.947563 218.215500,19.766468 217.721542,21.450958 
	C217.474518,22.293344 216.391891,22.891523 215.685257,23.598185 
	C178.468445,60.816235 141.251556,98.034195 104.033669,135.251144 
	C103.209373,136.075424 102.503807,137.293182 101.512733,137.612015 
	C99.997147,138.099518 98.280846,137.963043 96.649750,138.091461 
	C96.712639,136.339798 96.444908,134.484268 96.951340,132.871933 
	C97.305786,131.743439 98.715828,130.945099 99.657974,130.002853 
	C136.638016,93.019188 173.618454,56.035915 210.851196,18.796326 
z"/>
<path fill="#E6C124" opacity="1.000000" stroke="none" 
	d="
M278.125397,93.896194 
	C276.635437,95.089546 274.984253,96.122742 274.623077,97.495361 
	C272.674500,104.901085 271.031403,112.387642 269.310608,119.852699 
	C267.261108,128.743790 267.922882,129.816208 276.597260,131.855804 
	C276.397003,138.363754 276.156403,138.614624 269.961426,138.775131 
	C258.596802,139.069565 255.146042,135.187881 257.366272,123.851311 
	C259.283997,114.059326 261.710358,104.366936 263.985291,94.305870 
	C261.869446,94.055885 259.975464,93.832123 257.797699,93.574829 
	C258.249054,89.687401 257.578674,85.507278 263.656036,86.008575 
	C264.575684,86.084427 266.189941,84.238068 266.580963,82.996719 
	C267.722839,79.371750 268.408203,75.602974 269.296539,71.787247 
	C272.993378,71.787247 276.395233,71.787247 280.320984,71.787247 
	C279.300415,76.665169 278.363983,81.140800 277.377930,85.853699 
	C280.140930,86.083244 282.421936,86.272751 284.895203,86.478226 
	C284.749603,90.863358 284.623688,94.895538 278.125397,93.896194 
z"/>
<path fill="#DDB923" opacity="1.000000" stroke="none" 
	d="
M71.572372,126.572586 
	C58.949902,139.197800 46.579506,151.575089 34.200840,163.944092 
	C33.259743,164.884476 32.376480,166.294098 31.257893,166.540909 
	C29.873802,166.846283 27.888634,166.614624 26.887686,165.763199 
	C26.115307,165.106201 26.050264,163.010071 26.426952,161.786652 
	C26.778982,160.643295 28.099768,159.779602 29.040131,158.838760 
	C52.485291,135.381180 75.936516,111.929649 99.386948,88.477325 
	C99.976143,87.888069 100.498260,86.909874 101.172501,86.789429 
	C103.007126,86.461639 104.906670,86.497253 106.780487,86.388855 
	C106.672104,88.146698 106.826523,89.979240 106.356133,91.634186 
	C106.076828,92.616837 104.816284,93.322861 103.991516,94.147858 
	C93.269035,104.873329 82.545586,115.597839 71.572372,126.572586 
z"/>
<path fill="#E8C324" opacity="1.000000" stroke="none" 
	d="
M456.257568,74.168365 
	C456.600037,70.817001 458.262054,69.901306 461.078766,70.186371 
	C463.193939,70.400444 465.348206,70.228668 468.452789,70.228668 
	C463.170166,93.182381 458.022675,115.548958 452.863525,137.966202 
	C449.050018,137.966202 445.643372,137.966202 441.604706,137.966202 
	C446.517395,116.574341 451.340515,95.572411 456.257568,74.168365 
z"/>
<path fill="#E7C224" opacity="1.000000" stroke="none" 
	d="
M586.253296,107.599396 
	C585.388733,111.016319 584.241638,114.044426 584.029114,117.136765 
	C583.435181,125.777565 588.767151,130.682632 597.353882,129.288956 
	C601.054138,128.688354 604.591614,127.084114 608.375549,125.880966 
	C612.012512,130.386734 612.189575,131.781479 606.764526,134.325775 
	C601.961487,136.578369 596.459351,138.307022 591.217651,138.445541 
	C581.833374,138.693542 575.387146,132.339233 573.880920,123.077980 
	C571.179260,106.466316 585.331970,87.273460 601.538086,86.093102 
	C601.173401,90.366562 600.948669,93.718979 596.060730,96.329628 
	C592.043274,98.475334 589.560425,103.494370 586.253296,107.599396 
z"/>
<path fill="#E9C324" opacity="1.000000" stroke="none" 
	d="
M555.204834,87.669556 
	C560.513672,91.459389 562.379395,96.358139 561.141113,102.282440 
	C558.796082,113.501289 556.324768,124.695389 553.699097,135.851074 
	C553.469604,136.826187 551.780396,137.971130 550.650208,138.117279 
	C548.046692,138.453964 545.369873,138.224091 542.010254,138.224091 
	C543.847168,130.094101 545.602600,122.400200 547.318054,114.697403 
	C548.076233,111.292831 548.908264,107.893967 549.436218,104.451019 
	C550.689392,96.279076 547.396301,93.143044 539.361572,94.668968 
	C538.097656,94.909004 536.833923,95.149559 535.488770,95.405342 
	C536.225281,86.830559 545.462341,83.234535 555.204834,87.669556 
z"/>
<path fill="#E8C224" opacity="1.000000" stroke="none" 
	d="
M313.235168,88.336945 
	C310.713409,100.759460 308.206268,112.779213 305.622650,124.782509 
	C304.682648,129.149612 303.560181,133.477448 302.481750,137.987152 
	C298.838470,137.987152 295.422150,137.987152 291.388550,137.987152 
	C293.969879,126.821732 296.466187,116.021782 298.963776,105.222137 
	C300.124420,100.203522 301.246246,95.175453 302.461731,90.170151 
	C303.591248,85.518982 309.308563,84.350159 313.235168,88.336945 
z"/>
<path fill="#E8C224" opacity="1.000000" stroke="none" 
	d="
M649.728394,108.900116 
	C647.391663,118.829498 645.150818,128.352615 642.887207,137.972595 
	C639.146912,137.972595 635.743896,137.972595 631.771545,137.972595 
	C634.681885,125.337700 637.504456,113.072784 640.333984,100.809502 
	C640.857239,98.541611 641.426208,96.284264 641.944397,94.015274 
	C643.939819,85.277512 643.935303,85.276482 654.335815,86.847839 
	C652.826172,94.091026 651.325256,101.292442 649.728394,108.900116 
z"/>
<path fill="#E8C224" opacity="1.000000" stroke="none" 
	d="
M517.461426,106.285706 
	C519.074402,99.426407 520.568481,92.966400 522.090027,86.387848 
	C525.368408,86.387848 528.316467,86.387848 532.125427,86.387848 
	C531.892456,89.113739 531.957642,91.714241 531.411377,94.179214 
	C528.571106,106.994759 525.292114,119.720512 522.777283,132.596924 
	C521.818481,137.506241 519.661743,138.954834 515.151489,138.259583 
	C513.716187,138.038361 512.237366,138.099182 510.212982,138.004486 
	C512.645569,127.318489 514.994080,117.001747 517.461426,106.285706 
z"/>
<path fill="#E9C324" opacity="1.000000" stroke="none" 
	d="
M619.026245,93.064194 
	C620.254883,96.493675 621.855164,99.552711 622.206116,102.748924 
	C623.442627,114.009621 621.496094,116.035194 610.494385,116.035179 
	C603.525269,116.035164 596.556152,116.035187 589.604492,116.035187 
	C589.293945,108.493927 589.788513,107.930450 596.432373,107.927002 
	C601.399658,107.924423 606.366943,107.926498 611.219177,107.926498 
	C613.146484,101.164574 611.520386,98.030251 603.951050,93.757881 
	C604.555237,91.318436 605.182800,88.784508 605.857849,86.058762 
	C611.512390,86.207710 615.604370,88.621826 619.026245,93.064194 
z"/>
<path fill="#EBC524" opacity="1.000000" stroke="none" 
	d="
M345.992432,153.139587 
	C338.187775,153.139587 330.881744,153.139587 323.049103,153.139587 
	C323.460480,150.941528 323.781036,149.228561 324.165833,147.172424 
	C336.487335,147.172424 348.716400,147.172424 361.087646,147.172424 
	C361.654633,151.529282 360.275513,153.727402 355.480835,153.199982 
	C352.517883,152.874054 349.489899,153.139572 345.992432,153.139587 
z"/>
<path fill="#EBC524" opacity="1.000000" stroke="none" 
	d="
M480.998962,153.138092 
	C474.683105,153.109558 468.866638,153.086609 463.050415,153.036652 
	C462.747314,153.034042 462.446167,152.801498 462.056915,152.639786 
	C461.331116,148.176804 463.107452,146.598694 467.719025,146.720795 
	C478.318634,147.001434 488.930725,146.809723 500.079010,146.809723 
	C499.626129,149.075821 499.283875,150.788284 498.814270,153.138092 
	C493.021362,153.138092 487.259888,153.138092 480.998962,153.138092 
z"/>
<path fill="#E3BE23" opacity="1.000000" stroke="none" 
	d="
M670.640381,85.942261 
	C671.603027,86.556511 672.664856,87.263725 672.573730,87.758720 
	C672.009521,90.823891 671.186096,93.841354 670.385742,97.134048 
	C665.664673,97.134048 661.244507,97.134048 656.810852,97.134048 
	C656.749207,88.167900 658.661560,86.540665 670.640381,85.942261 
z"/>
<path fill="#E4BF23" opacity="1.000000" stroke="none" 
	d="
M323.205902,96.807907 
	C320.663483,97.005379 318.561676,97.197006 316.445679,97.389938 
	C316.505554,88.413773 317.131897,85.964195 332.490173,86.243851 
	C331.714203,89.791290 330.963928,93.221237 330.180664,96.802063 
	C327.815826,96.802063 325.731171,96.802063 323.205902,96.807907 
z"/>
<path fill="#E8C224" opacity="1.000000" stroke="none" 
	d="
M406.667419,124.119553 
	C401.624115,124.133232 397.044922,124.133232 392.274261,124.133232 
	C395.317047,115.941429 395.764435,115.750443 408.990326,117.218895 
	C408.348145,119.598198 407.739838,121.852036 406.667419,124.119553 
z"/>
</svg>