<svg id="Capa_1" data-name="Capa 1" xmlns="http://www.w3.org/2000/svg" viewBox="0 0 181.21 45.79"><defs><style>.cls-1{fill:#efc824;}</style></defs><polygon class="cls-1" points="34.68 38.86 73.47 0.07 73.4 0 63.92 0 25.06 38.86 34.68 38.86"/><polygon class="cls-1" points="9.27 45.79 35.67 19.4 35.6 19.33 26.46 19.33 0 45.79 9.27 45.79"/><path class="cls-1" d="M90.88,42.51,89.61,49h-6l1.29-6.52L80.5,31.22h6l2.4,6.12,4.94-6.12h6Z" transform="translate(-8.2 -14.91)"/><path class="cls-1" d="M109.73,35.72l-.39,2.08h7.48L116,42.11h-7.52L108,44.45h8.9L116,49H101.21l3.56-17.73h14.42l-.92,4.5Z" transform="translate(-8.2 -14.91)"/><path class="cls-1" d="M135.3,39.3,141.07,49h-6.65l-3.6-5.77-1.67,1.54L128.32,49h-5.9L126,31.22h5.88l-1.27,6.27,6.73-6.27h6.87Z" transform="translate(-8.2 -14.91)"/><path class="cls-1" d="M158.9,45.86h-6.77L150.36,49H144l11.3-17.73h5.87L165.42,49h-5.94ZM158,41.55,157.19,37l-2.6,4.54Z" transform="translate(-8.2 -14.91)"/><path class="cls-1" d="M189.41,37a7,7,0,0,1-1.25,4.15,7.42,7.42,0,0,1-3.52,2.6l3,5.17h-6.21l-2.52-4.46h-1.46L176.52,49h-6l3.56-17.73H182a8.55,8.55,0,0,1,5.44,1.54A5.13,5.13,0,0,1,189.41,37Zm-6,.58c0-1.19-.74-1.79-2.23-1.79h-2L178.31,40h2.44a2.74,2.74,0,0,0,1.93-.63A2.23,2.23,0,0,0,183.37,37.61Z" transform="translate(-8.2 -14.91)"/></svg>